<svg xmlns="http://www.w3.org/2000/svg" viewBox="0 0 254 251" width="254" height="251">
  <g transform="translate(0,251) scale(0.1,-0.1)" fill="none" stroke="#800020">
    <path d="M281 2316 c-7 -8 -18 -100 -26 -214 -15 -209 -30 -351 -65 -637 -16
      -127 -21 -211 -18 -332 l3 -161 -80 -39 c-83 -39 -102 -65 -75 -99 18 -21 50
      -17 115 12 31 15 60 22 65 18 5 -5 11 -25 15 -44 l6 -35 -87 -45 c-97 -50
      -119 -77 -89 -110 10 -11 23 -20 30 -20 6 0 48 18 94 40 45 22 86 40 90 40 4
      0 35 -43 69 -95 126 -192 310 -338 534 -425 221 -86 523 -91 756 -14 226 75
      440 236 562 423 27 42 56 85 63 95 13 19 17 18 106 -24 102 -49 124 -47 129 7
      3 29 -1 33 -90 78 -51 26 -94 49 -95 49 -5 4 18 76 26 81 5 2 34 -6 65 -20 73
      -32 103 -32 118 0 15 34 -1 51 -87 90 l-71 33 4 153 c3 128 -2 197 -27 404
      -28 230 -49 442 -66 685 -8 102 -15 120 -49 120 -36 0 -352 -213 -514 -345
      l-62 -51 -108 23 c-144 30 -364 32 -501 3 -52 -11 -103 -20 -113 -20 -11 0
      -83 48 -161 107 -182 137 -405 283 -433 283 -12 0 -27 -6 -33 -14z m1888 -276
      c7 -85 28 -288 48 -450 33 -277 47 -539 29 -568 -4 -6 -36 0 -82 14 -72 23
      -78 24 -95 8 -43 -39 -16 -70 89 -105 l64 -21 -7 -37 c-4 -20 -10 -40 -15 -45
      -5 -5 -71 12 -152 39 -100 33 -161 48 -203 49 -57 1 -60 0 -63 -24 -1 -14 1
      -30 5 -37 5 -6 63 -27 130 -47 166 -49 233 -75 233 -91 0 -28 -102 -163 -182
      -242 -140 -138 -318 -232 -508 -269 -107 -21 -304 -18 -416 5 -254 53 -496
      216 -634 426 -27 43 -50 81 -50 85 0 11 123 55 249 90 122 34 158 65 116 100
      -24 20 -106 6 -259 -44 -76 -25 -142 -43 -147 -40 -8 4 -31 75 -26 80 1 1 39
      16 85 34 77 29 82 33 82 60 0 46 -25 52 -108 28 -40 -12 -75 -18 -80 -14 -17
      18 -4 299 26 541 17 138 38 333 47 435 9 101 18 186 20 189 8 7 172 -106 344
      -237 l164 -125 91 22 c232 56 374 56 598 -1 l86 -22 34 27 c126 103 468 350
      475 344 1 -1 6 -72 12 -157z"/>
    <path d="M624 1824 c-59 -40 -155 -118 -188 -153 -26 -27 -28 -35 -20 -59 16
      -47 42 -39 159 54 61 47 117 90 126 95 26 13 31 39 14 65 -20 31 -43 30 -91
      -2z"/>
    <path d="M1806 1834 c-23 -23 -20 -43 12 -69 105 -89 233 -185 246 -185 25 0
      49 45 37 68 -21 40 -231 202 -261 202 -10 0 -26 -7 -34 -16z"/>
    <path d="M748 1250 c-80 -24 -158 -106 -158 -166 0 -23 6 -37 20 -44 26 -14
      42 -5 79 47 43 59 74 77 135 77 63 0 104 -26 138 -87 49 -88 131 -39 84 51
      -51 98 -190 155 -298 122z"/>
    <path d="M1595 1236 c-85 -39 -149 -131 -127 -181 20 -44 56 -33 96 29 27 42
      44 57 80 71 81 31 130 8 212 -101 19 -26 24 -27 48 -16 32 14 34 47 6 102 -54
      105 -200 150 -315 96z"/>
    <path d="M1128 914 c-17 -36 0 -58 46 -62 l36 -3 0 -70 c0 -65 -2 -73 -29
      -100 -16 -16 -39 -29 -51 -29 -28 0 -69 42 -77 80 -7 39 -37 56 -69 41 -52
      -23 -17 -137 58 -186 53 -35 129 -35 181 1 l38 26 38 -26 c76 -53 191 -23 239
      62 29 51 29 107 2 122 -33 18 -58 3 -72 -41 -12 -43 -49 -79 -79 -79 -10 0
      -30 11 -46 24 -24 21 -28 32 -31 94 l-4 71 28 6 c44 9 59 20 62 44 7 44 -12
      51 -139 51 -119 0 -120 0 -131 -26z"/>
  </g>
</svg>
